<svg xmlns="http://www.w3.org/2000/svg" width="1366" height="768" viewBox="0 0 1366 768">
  <metadata><?xpacket begin="﻿" id="W5M0MpCehiHzreSzNTczkc9d"?>
<x:xmpmeta xmlns:x="adobe:ns:meta/" x:xmptk="Adobe XMP Core 5.6-c142 79.160924, 2017/07/13-01:06:39        ">
   <rdf:RDF xmlns:rdf="http://www.w3.org/1999/02/22-rdf-syntax-ns#">
      <rdf:Description rdf:about=""/>
   </rdf:RDF>
</x:xmpmeta>
                                                                                                    
                                                                                                    
                                                                                                    
                                                                                                    
                                                                                                    
                                                                                                    
                                                                                                    
                                                                                                    
                                                                                                    
                                                                                                    
                                                                                                    
                                                                                                    
                                                                                                    
                                                                                                    
                                                                                                    
                                                                                                    
                                                                                                    
                                                                                                    
                                                                                                    
                                                                                                    
                           
<?xpacket end="w"?></metadata>
<defs>
    <style>
      .cls-1 {
        fill: none;
        stroke: #2d2127;
        stroke-width: 10px;
      }

      .cls-1, .cls-2 {
        fill-rule: evenodd;
      }

      .cls-2 {
        fill: #c33;
      }
    </style>
  </defs>
  <g id="Artboard_1" data-name="Artboard 1">
    <path class="cls-1" d="M-14-8l1389-3"/>
    <path class="cls-2" d="M1375,125l-2-138L-11-5-26,413c7.126-2.714,14.1-5.463,21.188-8.352C17.641,395.5,42.178,384.736,59,376c37.223-19.33,86.509-70.566,140.643-79.953C237.848,289.423,276.714,297.827,315,317a1405.769,1405.769,0,0,0,158.348,84.91c54.665,24.809,96.187,38.244,147.255,38.895C670.454,441.44,726.3,429.58,786,398c58.311-30.846,85.249-67.857,136-110a744.671,744.671,0,0,1,127-85c61.81-32.744,117.85-52.649,171-64a615.125,615.125,0,0,1,155-13"/>
  </g>
</svg>
