<svg height="472pt" viewBox="-100 0 472 472.00002" width="472pt" xmlns="http://www.w3.org/2000/svg"><path d="m136.101562 8c-44.183593 0-80 35.816406-80 80v128c0 44.183594 35.816407 80 80 80 44.183594 0 80-35.816406 80-80v-128c0-44.183594-35.816406-80-80-80zm0 0" fill="#898890"/><g fill="#57565c"><path d="m171.300781 7.382812-.105469-.046874c-22.355468-9.78125-47.785156-9.78125-70.144531 0l-.101562.046874c-32.058594 13.996094-52.800781 45.636719-52.847657 80.617188v128c.039063 34.96875 20.761719 66.605469 52.800782 80.617188l.085937.046874c22.363281 9.78125 47.796875 9.78125 70.160157 0l.097656-.046874c32.0625-13.996094 52.804687-45.632813 52.855468-80.617188v-128c-.039062-34.96875-20.761718-66.605469-52.800781-80.617188zm4.800781 268.441407v-27.824219c0-4.417969-3.582031-8-8-8-4.417968 0-8 3.582031-8 8v35.800781c-5.171874 1.855469-10.542968 3.109375-16 3.726563v-39.527344c0-4.417969-3.582031-8-8-8-4.417968 0-8 3.582031-8 8v39.527344c-5.460937-.617188-10.828124-1.871094-16-3.726563v-35.800781c0-4.417969-3.582031-8-8-8-4.417968 0-8 3.582031-8 8v27.824219c-19.984374-13.351563-31.988281-35.792969-32-59.824219v-8.304688l47.949219.304688h.050781c4.417969.011719 8.011719-3.558594 8.023438-7.976562.011719-4.417969-3.558594-8.011719-7.976562-8.023438l-48.046876-.304688v-16l47.949219.304688h.050781c4.417969.011719 8.011719-3.558594 8.023438-7.976562.011719-4.417969-3.558594-8.011719-7.976562-8.023438l-48.046876-.304688v-16l47.949219.304688h.050781c4.417969.011719 8.011719-3.558594 8.023438-7.976562.011719-4.417969-3.558594-8.011719-7.976562-8.023438l-48.046876-.304688v-16l47.949219.304688h.050781c4.417969.011719 8.011719-3.558594 8.023438-7.976562.011719-4.417969-3.558594-8.011719-7.976562-8.023438l-48.046876-.304688v-7.695312c.011719-24.03125 12.015626-46.472656 32-59.824219v27.824219c0 4.417969 3.582032 8 8 8 4.417969 0 8-3.582031 8-8v-35.800781c5.171876-1.855469 10.539063-3.109375 16-3.726563v39.527344c0 4.417969 3.582032 8 8 8 4.417969 0 8-3.582031 8-8v-39.527344c5.457032.617188 10.828126 1.871094 16 3.726563v35.800781c0 4.417969 3.582032 8 8 8 4.417969 0 8-3.582031 8-8v-27.824219c19.980469 13.351563 31.984376 35.792969 32 59.824219v7.695312l-48.050781.304688c-4.417969.011719-7.988281 3.605469-7.972656 8.023438.011719 4.417968 3.605469 7.988281 8.023437 7.976562h.046876l47.953124-.304688v16l-48.050781.304688c-4.417969.011719-7.988281 3.605469-7.972656 8.023438.011719 4.417968 3.605469 7.988281 8.023437 7.976562h.046876l47.953124-.304688v16l-48.050781.304688c-4.417969.011719-7.988281 3.605469-7.972656 8.023438.011719 4.417968 3.605469 7.988281 8.023437 7.976562h.046876l47.953124-.304688v16l-48.050781.304688c-4.417969.011719-7.988281 3.605469-7.972656 8.023438.011719 4.417968 3.605469 7.988281 8.023437 7.976562h.046876l47.953124-.304688v8.304688c-.015624 24.03125-12.019531 46.472656-32 59.824219zm0 0"/><path d="m264.308594 168-8.207032-.222656v-7.777344c0-4.417969-3.582031-8-8-8-4.417968 0-8 3.582031-8 8v56c0 57.4375-46.5625 104-104 104s-104-46.5625-104-104v-56c0-4.417969-3.582031-8-8-8-4.417968 0-8 3.582031-8 8v7.777344l-7.792968-.210938h-.207032c-4.417968-.054687-8.0468745 3.484375-8.101562 7.902344s3.480469 8.042969 7.902344 8.097656l8.199218.226563v32.207031c.097657 60.03125 44.511719 110.765625 104 118.808594v105.191406h-40c-17.675781 0-32 14.328125-32 32h176c0-17.671875-14.328124-32-32-32h-40v-105.191406c59.488282-8.042969 103.898438-58.777344 104-118.808594v-32.207031l7.792969.207031h.207031c4.417969.054688 8.042969-3.480469 8.097657-7.898438.054687-4.417968-3.480469-8.046874-7.898438-8.101562zm0 0"/></g></svg>