<?xml version="1.0" encoding="utf-8"?>
<!-- Generator: Adobe Illustrator 24.0.1, SVG Export Plug-In . SVG Version: 6.00 Build 0)  -->
<svg version="1.1" id="Layer_1" xmlns="http://www.w3.org/2000/svg" xmlns:xlink="http://www.w3.org/1999/xlink" x="0px" y="0px"
	 viewBox="0 0 512 512" style="enable-background:new 0 0 512 512;" xml:space="preserve">
<style type="text/css">
	.st0{fill:#0377BC;}
	.st1{fill:#02A9F4;}
	.st2{fill:#00BCD4;}
	.st3{fill:#00838F;}
	.st4{fill:#283593;}
	.st5{fill:#3F51B5;}
	.st6{fill:#673AB7;}
	.st7{fill:#4527A0;}
</style>
<title>001 - Thinking</title>
<desc>Created with Sketch.</desc>
<g id="Page-1">
	<g id="_x30_01---Thinking" transform="translate(-1.000000, -1.000000)">
		<path id="Shape" class="st0" d="M393.5,317.5c-10.7,24.5-14.8,51.5-11.7,78.1c1.9,17.3,5.3,34.4,10.2,51.1c2.6,8.6,6,17.1,10,25.2
			c5,7.6,9.5,15.6,13.4,23.8l-210.7,0.6v-0.1c-0.7-2.5-13.3-51.9-41.4-64.5c-5.2,1.8-10.7,3.7-16.4,5.6c-18.6,6.5-37.6,12-56.8,16.5
			c-5.3,1.3-10.9,0.5-15.6-2.2c-5.4-3.3-9.4-8.5-11.3-14.5c-2.2-6-3-12.4-2.4-18.7c1.9-6.5,2.6-13.3,1.9-20
			c-2.2-8.5-10.2-10.6-16.7-15.1c-5.1-3.7,4.2-15.5,4.2-15.5s-9.9-7.3-13.4-10.5c-3.7-3,1.5-8.2,6.1-18c1.9-4.3,2.5-9,1.6-13.6
			c-1.8-9-15.4-12.4-22.1-17.4c-3.2-2.4-8.3-5.9-8.9-10.2c-0.9-6,6.1-14.4,9.6-18.5c14.6-18.9,27.2-39.3,37.4-60.9
			c1.3-2.3,2.1-4.8,2.4-7.5c-0.2-12-17.5-17-19.1-28.6c-0.2-3.4,0.4-6.9,1.8-10c4.8-10.3,9-20.9,12.4-31.7c2.1-9.9,4.7-19.8,8-29.4
			c7-19.3,17.9-37,31.9-52c20.6-21.7,50.9-32.5,79.7-38.2c25.5-5.6,51.4-9.4,77.5-11.3c0.8-0.1,1.7-0.1,2.5-0.2
			c53.7-2.7,96.2,15.5,137.8,48.1c22.7,16.9,39.3,40.8,47.3,67.9c6.1,22.4,8.9,45.6,8.5,68.8c-0.2,22.9-6.9,45.4-19.3,64.6
			C419.3,278.8,402.9,295.9,393.5,317.5z"/>
		<path id="Shape_1_" class="st1" d="M368.3,317.5c-10.7,24.5-14.8,51.5-11.7,78.1c1.9,17.3,5.3,34.4,10.2,51.1
			c2.6,8.6,6,17.1,10,25.2c5,7.6,9.5,15.6,13.4,23.8l-185.5,0.5c-0.7-2.5-13.3-51.9-41.4-64.5c-5.2,1.8-10.7,3.7-16.4,5.6
			c-2.7-2.3-5.6-4.2-8.8-5.6c-20.2,7.1-44.9,15.2-63.6,19.9c-5.4-3.3-9.4-8.5-11.3-14.5c-2.2-6-3-12.4-2.4-18.7
			c1.9-6.5,2.6-13.3,1.9-20c-2.2-8.5-10.2-10.6-16.7-15.1c-5.1-3.7,4.2-15.5,4.2-15.5s-9.9-7.3-13.4-10.5c-3.7-3,1.5-8.2,6.1-18
			c1.9-4.3,2.5-9,1.6-13.6c-1.8-9-15.4-12.4-22.1-17.4c-3.2-2.4-8.3-5.9-8.9-10.2c-0.9-6,6.1-14.4,9.6-18.5
			c14.6-18.9,27.2-39.3,37.4-60.9c1.3-2.3,2.1-4.8,2.4-7.5c-0.2-12-17.5-17-19.1-28.6c-0.2-3.4,0.4-6.9,1.8-10
			c4.8-10.3,9-20.9,12.4-31.7c2.1-9.9,4.7-19.8,8-29.4c7-19.3,17.9-37,31.9-52c20.6-21.7,50.9-32.5,79.7-38.2
			c25.5-5.6,51.4-9.4,77.5-11.3c43.3,2.7,79.6,20.1,115.2,47.9c22.7,16.9,39.3,40.8,47.3,67.9c6.1,22.4,8.9,45.6,8.5,68.8
			c-0.2,22.9-6.9,45.4-19.3,64.6C394.1,278.8,377.7,295.9,368.3,317.5z"/>
		<path id="Shape_2_" class="st2" d="M500.4,102.2V118c0,3.2-2.2,6-5.4,6.6l-24,4.8c-1.6,6.1-4.1,12-7.3,17.5l13.7,20.4
			c1.7,2.7,1.3,6.2-0.9,8.5l-11.2,11.2c-2.3,2.2-5.8,2.6-8.5,0.9l-20.4-13.7c-1,0.6-2.1,1.2-3.2,1.8c-4.5,2.4-9.3,4.2-14.3,5.5
			l-1.4,7.4l-21.1,4.2c-1.6,6-3.9,11.9-6.7,17.5c-2.4-0.7-4.2-2.6-4.6-5l-4.8-24c-6.1-1.6-12-4.1-17.5-7.3l-20.4,13.7
			c-2.7,1.7-6.2,1.3-8.5-0.9l-11.2-11.2c-2.2-2.3-2.6-5.8-0.9-8.5l13.7-20.4c-3.2-5.5-5.7-11.3-7.3-17.5l-24-4.8
			c-3.1-0.6-5.4-3.4-5.4-6.6v-15.8c0-3.2,2.2-6,5.4-6.6l24-4.8c1-3.7,2.3-7.4,3.9-10.8c1-2.3,2.1-4.5,3.4-6.6l-7.7-11.5l-6-8.9
			c-1.6-2.6-1.4-5.8,0.6-8.1l0.3-0.3l11.2-11.2c2.3-2.2,5.8-2.6,8.5-0.9l20.4,13.7c5.5-3.2,11.3-5.7,17.5-7.3l4.8-24
			c0.6-3.1,3.4-5.4,6.6-5.4h15.8c3.2,0,6,2.2,6.6,5.4l4.8,24c6.1,1.6,12,4.1,17.5,7.3l20.4-13.7c2.7-1.7,6.2-1.3,8.5,0.9l11.2,11.2
			c2.2,2.3,2.6,5.8,0.9,8.5l-13.7,20.4c3.2,5.5,5.7,11.3,7.3,17.5l24,4.8C498.2,96.2,500.4,99,500.4,102.2z"/>
		<path id="Shape_3_" class="st3" d="M500.4,102.2V118c0,3.2-2.2,6-5.4,6.6l-24,4.8c-1.6,6.1-4.1,12-7.3,17.5l13.7,20.4
			c1.7,2.7,1.3,6.2-0.9,8.5l-11.2,11.2c-2.3,2.2-5.8,2.6-8.5,0.9l-10.6-7.1l5-5c2.2-2.3,2.6-5.8,0.9-8.5l-13.7-20.4
			c3.2-5.5,5.7-11.3,7.3-17.5l24-4.8c3.1-0.6,5.4-3.4,5.4-6.6v-15.8c0-3.2-2.2-6-5.4-6.6l-24-4.8c-1.6-6.1-4.1-12-7.3-17.5L452.2,53
			c1.7-2.7,1.3-6.2-0.9-8.5l-5-5l10.6-7.1c2.7-1.7,6.2-1.3,8.5,0.9l11.2,11.2c2.2,2.3,2.6,5.8,0.9,8.5l-13.7,20.4
			c3.2,5.5,5.7,11.3,7.3,17.5l24,4.8C498.2,96.2,500.4,99,500.4,102.2z"/>
		<path id="Shape_4_" class="st4" d="M441.7,110.1c0,23.2-18.8,42-42,42c-4.3,0-8.5-0.6-12.6-1.8c-17.5-5.5-29.4-21.8-29.4-40.1
			s11.9-34.6,29.4-40.1c4.1-1.2,8.3-1.8,12.6-1.8C422.9,68.1,441.7,86.9,441.7,110.1z"/>
		<ellipse id="Oval" class="st5" cx="387.1" cy="110.1" rx="29.4" ry="40.1"/>
		<path id="Shape_5_" class="st6" d="M433.3,159v19.8c0,4-2.8,7.4-6.7,8.2l-9,1.8l-21.1,4.2c-1.6,6-3.9,11.9-6.7,17.5
			c-0.8,1.5-1.5,2.9-2.4,4.4l17,25.4c2.2,3.3,1.7,7.8-1.1,10.6l-14,14c-2.8,2.8-7.2,3.3-10.6,1.1l-25.4-17c-6.8,4-14.2,7-21.8,9.1
			l-6,30c-0.8,3.9-4.2,6.7-8.2,6.7h-19.8c-4,0-7.4-2.8-8.2-6.7l-6-30c-7.6-2.1-15-5.1-21.8-9.1l-25.4,17c-3.3,2.2-7.8,1.7-10.6-1.1
			l-14-14c-2.8-2.8-3.3-7.2-1.1-10.6l17-25.4c-4-6.8-7-14.2-9.1-21.8l-30-6c-3.9-0.8-6.7-4.2-6.7-8.2V159c0-4,2.8-7.4,6.7-8.2l30-6
			c2.1-7.6,5.1-15,9.1-21.8l-17-25.4c-2.2-3.3-1.7-7.8,1.1-10.6l14-14c2.8-2.8,7.2-3.3,10.6-1.1l25.4,17c6.8-4,14.2-7,21.8-9.1l6-30
			c0.8-3.9,4.2-6.7,8.2-6.7h19.8c4,0,7.5,2.8,8.2,6.7l2.4,12.2l3.6,17.9l0.8,0.3c7.4,2,14.5,5,21.1,8.8l25.4-17
			c3.3-2.2,7.8-1.7,10.6,1.1l14,14c2.8,2.8,3.3,7.2,1.1,10.6l-17,25.4c4,6.8,7,14.2,9.1,21.8l30,6C430.5,151.5,433.3,155,433.3,159z
			"/>
		<path id="Shape_6_" class="st7" d="M433.3,159v19.8c0,4-2.8,7.4-6.7,8.2l-9,1.8l-15.2,3l-5.9,1.2c-1.6,6-3.9,11.9-6.7,17.5
			c-0.8,1.5-1.5,2.9-2.4,4.4l17,25.4c2.2,3.3,1.7,7.8-1.1,10.6l-14,14c-2.8,2.8-7.2,3.3-10.6,1.1l-9.4-6.3l8.8-8.8
			c2.8-2.8,3.3-7.2,1.1-10.6l-17-25.4c0.8-1.4,1.6-2.9,2.4-4.4c2.8-5.6,5.1-11.4,6.7-17.5l21.1-4.2l9-1.8c3.9-0.8,6.7-4.2,6.7-8.2
			V159c0-4-2.8-7.4-6.7-8.2l-30-6c-2.1-7.6-5.1-15-9.1-21.8l17-25.4c2.2-3.3,1.7-7.8-1.1-10.6l-8.8-8.8l9.4-6.3
			c3.3-2.2,7.8-1.7,10.6,1.1l14,14c2.8,2.8,3.3,7.2,1.1,10.6l-17,25.4c4,6.8,7,14.2,9.1,21.8l30,6C430.5,151.5,433.3,155,433.3,159z
			"/>
		<circle id="Oval_1_" class="st5" cx="307.4" cy="168.9" r="50.4"/>
		<path id="Shape_7_" d="M85.1,462.6c-13.9-0.3-25.9-9.5-29.7-22.9c-2.7-7.2-3.7-15-2.8-22.6c0.3-2.2,0.8-4.4,1.3-6.6
			c1.1-3.3,1.4-6.7,0.9-10.2c-0.7-2.6-2.6-3.9-7.6-6.7c-2-1.1-4-2.3-5.9-3.7c-2.7-1.9-4.5-4.9-4.9-8.2c-0.3-4.2,0.6-8.4,2.7-12.1
			c-2.9-2.2-6-4.7-7.8-6.3c-7.8-6.3-2.6-15.4,0.5-20.9c1.1-2,2.4-4.3,3.7-7c1.2-2.7,1.5-5.6,0.9-8.5c-0.4-2.2-6.5-5.3-10.1-7.1
			c-3-1.4-6-3.1-8.7-5c-6-3.4-10.4-9.1-12.2-15.8c-1.3-8.6,5-17.3,11.1-24.7c14.4-18.5,26.7-38.5,36.7-59.7c0.6-1.1,1.1-2.4,1.4-3.6
			c0-2.3-2.7-5-6.9-8.7c-6.2-4.6-10.5-11.2-12.3-18.7c-0.4-4.8,0.4-9.7,2.3-14.1c1.5-4,3.2-7.8,4.9-11.6c3-6.1,5.4-12.5,7.2-19.1
			c2.1-10.3,4.9-20.4,8.3-30.3C65.6,88.1,77,69.4,91.8,53.6c18.8-19.8,46.3-33.1,84.1-40.7c26.7-5.9,53.9-9.8,81.2-11.7
			c9.7-0.5,19.5-0.3,29.2,0.6c4.6,0.4,8,4.5,7.6,9.2c-0.4,4.6-4.5,8-9.2,7.6c-8.9-0.8-17.8-1-26.7-0.6c-26.5,1.8-52.8,5.6-78.7,11.3
			c-33.9,6.7-59.2,18.8-75.2,35.7C90.8,79.3,80.5,96,73.9,114.3c-3.1,9.1-5.6,18.4-7.6,27.8c-2,7.8-4.9,15.5-8.4,22.8
			c-1.6,3.5-3.2,7.1-4.5,10.7c-0.8,1.9-1.3,3.9-1.4,6c0.4,2.5,3.6,5.4,7,8.5c6.9,4.9,11.4,12.5,12.3,21c-0.2,4-1.3,7.9-3.2,11.3
			c-10.5,22.1-23.4,43-38.4,62.4c-6.4,7.8-7.8,10.9-7.8,12.2c1.6,1.5,3.2,2.9,5,4.1c2.2,1.5,4.5,2.9,6.9,4c7.2,3.7,17,8.7,19,18.9
			c1.2,6.3,0.4,12.9-2.2,18.8c-1.5,3.1-3,5.8-4.3,8.1c-0.4,0.7-0.8,1.5-1.3,2.3c3.5,2.8,8.2,6.4,10.2,7.8c1.8,1.4,3,3.4,3.3,5.6
			c0.3,2.3-0.3,4.5-1.7,6.3c-1.2,1.6-2.3,3.4-3.2,5.2l1.8,1c7.4,3.2,13,9.4,15.5,17.1c1.2,6,0.9,12.2-0.8,18.1
			c-0.4,1.7-0.8,3.4-1,5.2c-0.4,5.1,0.3,10.1,2.1,14.9c1.9,7.7,9.5,12.6,17.3,11.2c24.4-5.9,48.5-13.2,72.1-21.8
			c4.4-1.5,9.2,0.8,10.7,5.2c1.5,4.4-0.8,9.2-5.2,10.7c-24.3,8.9-49.1,16.4-74.3,22.4C89.7,462.3,87.4,462.6,85.1,462.6z
			 M42.2,350.7l0.3,0.2L42.2,350.7z"/>
		<path id="Shape_8_" d="M99.1,149.4l-16.4-3.6c1.8-8.7,4.1-17.2,6.9-25.6c5.8-16.2,14.9-31,26.6-43.5c13.6-14.4,36-24.8,66.4-30.8
			c4.5-0.9,9,2.1,9.9,6.6s-2.1,9-6.6,9.9c-27,5.4-46.3,14.1-57.5,25.9c-10.1,10.9-18,23.8-23,37.8
			C102.8,133.6,100.8,141.5,99.1,149.4z"/>
		<path id="Shape_9_" d="M204.8,504.6c-3.9,0-7.2-2.6-8.2-6.4c-3.3-13.3-16.2-49.7-36.7-59c-3.1-1.4-5.1-4.6-4.9-8.1
			c0.2-3.4,2.4-6.4,5.7-7.5c8.7-3,16.6-5.7,22.9-7.9c5.9-2,10.2-3.6,12.5-4.3c34.9-11.1,42-23.7,41.8-32.3c-0.1-2.2,0.8-4.4,2.3-6
			c1.5-1.6,3.7-2.5,5.9-2.6c2.2-0.1,4.4,0.7,6,2.3c1.6,1.5,2.5,3.7,2.6,5.9c0.5,20.8-17.5,37.2-53.4,48.7c-2.2,0.7-6.5,2.2-12.1,4.2
			l-7.6,2.6c13.8,15.3,24,33.7,29.5,53.6l190.4-0.5l-0.6-0.8c-2.4-3.5-4.6-7.1-6.5-10.9c-4.2-8.5-7.7-17.3-10.4-26.3
			c-5.1-17.2-8.6-34.8-10.6-52.6c-3.3-28.1,0.9-56.5,12.3-82.4c6.7-14,15-27.2,24.7-39.3c4.9-6.6,9.9-13.3,14.3-20.2
			c7-10.9,12.2-23,15.1-35.7c1.1-4.4,5.6-7.2,10-6.2c4.5,1,7.3,5.5,6.3,9.9c-3.4,14.5-9.2,28.3-17.3,40.9c-4.7,7.4-9.9,14.4-15,21.2
			c-8.9,11.1-16.6,23.2-22.8,36c-10.2,23.1-14,48.6-11,73.7c1.8,16.8,5.1,33.4,9.9,49.7c2.5,8.2,5.7,16.2,9.5,23.9
			c1.6,3.1,3.4,6.2,5.4,9.1c3.6,4.9,6.4,10.3,8.5,15.9c0.8,2.5,0.3,5.3-1.2,7.5c-1.6,2.2-4.1,3.4-6.8,3.4L204.8,504.6L204.8,504.6z"
			/>
		<path id="Shape_10_" d="M317.3,303.2h-19.8c-8,0-14.9-5.6-16.5-13.5l-5-25.1c-4.9-1.6-9.6-3.6-14.1-5.9l-21.2,14.2
			c-6.7,4.4-15.6,3.5-21.3-2.2l-13.9-13.9c-5.6-5.6-6.6-14.4-2.2-21.1l14.3-21.3c-2.3-4.6-4.3-9.3-5.9-14.1l-25.1-5
			c-7.8-1.6-13.4-8.5-13.4-16.5V159c0-8,5.6-14.9,13.5-16.5l25.1-5c1.6-4.9,3.6-9.6,5.9-14.1l-14.2-21.2c-4.5-6.7-3.5-15.6,2.2-21.3
			l13.9-13.9c5.6-5.6,14.4-6.6,21.1-2.2L261.8,79c4.6-2.3,9.3-4.3,14.1-5.9l5-25.1c1.6-7.8,8.5-13.4,16.5-13.4h19.8
			c8,0,14.9,5.6,16.5,13.5l5,25.1c4.9,1.6,9.6,3.6,14.1,5.9l21.2-14.2c6.7-4.5,15.6-3.5,21.3,2.2l13.9,13.9
			c5.6,5.6,6.6,14.4,2.2,21.1l-14.3,21.3c2.3,4.6,4.3,9.3,5.9,14.1l25.1,5c7.8,1.6,13.4,8.5,13.4,16.5v19.8c0,8-5.6,14.9-13.5,16.5
			l-25.1,5c-1.6,4.9-3.6,9.6-5.9,14.1l14.2,21.2c4.5,6.7,3.5,15.6-2.2,21.3l-13.9,13.9c-5.6,5.6-14.4,6.6-21.1,2.2l-21.3-14.3
			c-4.6,2.3-9.3,4.3-14.1,5.9l-5,25.1C332.1,297.6,325.2,303.2,317.3,303.2z M261.4,240.5c1.5,0,2.9,0.4,4.2,1.1
			c6.2,3.6,12.9,6.4,19.8,8.2c3.1,0.8,5.4,3.3,6,6.4l6,30h19.8l6-30c0.6-3.1,3-5.6,6-6.4c6.9-1.9,13.6-4.6,19.8-8.2
			c2.8-1.6,6.2-1.5,8.9,0.3l25.4,17l14-14.1l-17-25.4c-1.8-2.7-1.9-6.1-0.3-8.9c3.6-6.2,6.4-12.9,8.2-19.8c0.8-3.1,3.3-5.4,6.4-6
			l30-6V159l-30-6c-3.1-0.6-5.6-3-6.4-6c-1.9-6.9-4.6-13.6-8.2-19.8c-1.6-2.8-1.5-6.2,0.3-8.9l17-25.4l-14.1-14l-25.4,17
			c-2.7,1.8-6.1,1.9-8.9,0.3c-6.2-3.6-12.9-6.4-19.8-8.2c-3.1-0.8-5.4-3.3-6-6.4l-6-30h-19.8l-6,30c-0.6,3.1-3,5.6-6,6.4
			c-6.9,1.9-13.6,4.6-19.8,8.2c-2.8,1.6-6.2,1.5-8.9-0.3l-25.4-17l-14,14.1l17,25.4c1.8,2.7,1.9,6.1,0.3,8.9
			c-3.6,6.2-6.4,12.9-8.2,19.8c-0.8,3.1-3.3,5.4-6.4,6l-30,6v19.8l30,6c3.1,0.6,5.6,3,6.4,6c1.9,6.9,4.6,13.6,8.2,19.8
			c1.6,2.8,1.5,6.2-0.3,8.9l-17,25.4l14.1,14l25.4-17C258.1,241,259.7,240.6,261.4,240.5z"/>
		<path id="Shape_11_" d="M460.5,197.3c-2.9,0-5.7-0.8-8.2-2.4L436,184c-4.1,1.4-8.6-0.5-10.4-4.5c-1.8-3.9-0.3-8.6,3.5-10.7l3.5-2
			c2.7-1.4,6-1.2,8.5,0.5l19.2,12.9l9.3-9.3l-12.9-19.2c-1.8-2.7-1.9-6.2-0.2-9c2.8-4.8,5-10,6.4-15.4c0.8-3.1,3.3-5.4,6.5-6
			l22.7-4.5v-13.1L469.4,99c-3.1-0.6-5.6-3-6.5-6c-1.4-5.4-3.6-10.6-6.4-15.4c-1.7-2.8-1.6-6.3,0.2-9l12.9-19.2l-9.3-9.3L441.1,53
			c-2.7,1.8-6.2,1.9-9,0.2c-4.8-2.8-10-5-15.4-6.4c-3.1-0.8-5.4-3.3-6-6.5l-4.5-22.6h-13.1l-4.5,22.7c-0.6,3.1-3,5.6-6,6.5
			c-5.4,1.4-10.6,3.6-15.4,6.4c-2.8,1.6-6.3,1.5-9-0.3l-19.2-12.9l-10.2,10.2c-3.3,3.3-8.7,3.4-12.1,0.2c-1.6-1.5-2.5-3.6-2.6-5.8
			c0-2.2,0.8-4.3,2.3-5.9l11.5-11.5c5-5,12.9-5.9,18.9-2.1l16.4,11c3.2-1.6,6.4-2.9,9.8-4.1l3.8-19.1C378.4,6,384.6,1,391.8,1h15.8
			c7.2,0,13.5,5.1,14.9,12.2l3.8,19c3.3,1.1,6.6,2.5,9.8,4.1l16.2-10.8c6-3.9,14-3.1,19.1,2l11.2,11.2c5,5,5.9,12.9,2.1,18.9
			l-11,16.4c1.6,3.2,2.9,6.4,4.1,9.8l19.1,3.8c7.1,1.4,12.1,7.7,12.1,14.9V118c0,7.2-5.1,13.5-12.2,14.9l-19,3.8
			c-1.1,3.3-2.5,6.6-4.1,9.8l10.8,16.2c3.9,6,3.1,14-2,19.1l-11.2,11.2C468.4,195.7,464.6,197.3,460.5,197.3z"/>
		<path id="Shape_12_" d="M307.4,227.6c-32.4,0-58.8-26.3-58.8-58.8s26.3-58.8,58.8-58.8s58.8,26.3,58.8,58.8
			C366.1,201.3,339.8,227.6,307.4,227.6z M307.4,126.9c-23.2,0-42,18.8-42,42s18.8,42,42,42s42-18.8,42-42
			C349.3,145.7,330.5,126.9,307.4,126.9z"/>
		<circle id="Oval_2_" cx="307.4" cy="168.9" r="8.4"/>
		<path id="Shape_13_" d="M417.4,157c-4,0-7.4-2.8-8.2-6.7c-0.8-3.9,1.2-7.8,4.9-9.4c14.6-6.3,22.8-22,19.5-37.6
			c-3.2-15.6-16.9-26.8-32.8-26.8c-3.8,0-7.6,0.6-11.2,2c-4.3,1.4-8.8-0.9-10.4-5.1c-1.6-4.2,0.4-8.9,4.5-10.7
			c5.5-2,11.3-3.1,17.1-3.1c23.9,0,44.5,16.8,49.3,40.2c4.8,23.4-7.5,46.9-29.4,56.4C419.6,156.8,418.5,157,417.4,157z"/>
		<circle id="Oval_3_" cx="80.7" cy="177.3" r="8.4"/>
	</g>
</g>
</svg>
